<svg width="68" height="69" viewBox="0 0 68 69" fill="none" xmlns="http://www.w3.org/2000/svg">
<path d="M63.2188 7.84538H4.78125C3.79531 7.84648 2.85007 8.24086 2.1529 8.94199C1.45574 9.64312 1.06359 10.5937 1.0625 11.5853V48.9844C1.06359 49.9759 1.45574 50.9266 2.1529 51.6277C2.85007 52.3288 3.79531 52.7232 4.78125 52.7243H26.0552L24.7802 55.9299H19.125C18.8432 55.9299 18.573 56.0425 18.3737 56.2429C18.1744 56.4433 18.0625 56.7151 18.0625 56.9985V59.1356H11.6875C11.4057 59.1356 11.1355 59.2481 10.9362 59.4485C10.7369 59.6489 10.625 59.9207 10.625 60.2041C10.625 60.4875 10.7369 60.7593 10.9362 60.9597C11.1355 61.1601 11.4057 61.2727 11.6875 61.2727H56.3125C56.5943 61.2727 56.8645 61.1601 57.0638 60.9597C57.2631 60.7593 57.375 60.4875 57.375 60.2041C57.375 59.9207 57.2631 59.6489 57.0638 59.4485C56.8645 59.2481 56.5943 59.1356 56.3125 59.1356H49.9375V56.9985C49.9375 56.7151 49.8256 56.4433 49.6263 56.2429C49.427 56.0425 49.1568 55.9299 48.875 55.9299H43.2198L41.9448 52.7243H63.2188C64.2047 52.7232 65.1499 52.3288 65.8471 51.6277C66.5443 50.9266 66.9364 49.9759 66.9375 48.9844V11.5853C66.9364 10.5937 66.5443 9.64312 65.8471 8.94199C65.1499 8.24086 64.2047 7.84648 63.2188 7.84538V7.84538ZM47.8125 58.067V59.1356H20.1875V58.067H47.8125ZM27.0698 55.9299L28.3448 52.7243H39.6552L40.9302 55.9299H27.0698ZM64.8125 48.9844C64.8121 49.4094 64.6441 49.8169 64.3453 50.1174C64.0465 50.4179 63.6413 50.5869 63.2188 50.5872H4.78125C4.35867 50.5869 3.9535 50.4179 3.65469 50.1174C3.35588 49.8169 3.18785 49.4094 3.1875 48.9844V46.313H64.8125V48.9844ZM64.8125 44.1759H3.1875V11.5853C3.18785 11.1603 3.35588 10.7528 3.65469 10.4523C3.9535 10.1518 4.35867 9.98283 4.78125 9.98247H63.2188C63.6413 9.98283 64.0465 10.1518 64.3453 10.4523C64.6441 10.7528 64.8121 11.1603 64.8125 11.5853V44.1759Z" fill="#36C965"/>
<path d="M29.167 35.4523C29.2836 35.5293 29.4142 35.5824 29.5513 35.6087C29.6884 35.6349 29.8293 35.6337 29.9659 35.6052C30.1025 35.5767 30.2322 35.5213 30.3476 35.4424C30.4629 35.3635 30.5617 35.2624 30.6383 35.1451L39.0055 22.3226C39.1601 22.0856 39.2148 21.7966 39.1576 21.5192C39.1003 21.2417 38.9358 20.9984 38.7003 20.8429C38.4647 20.6874 38.1773 20.6323 37.9014 20.6899C37.6255 20.7475 37.3836 20.9129 37.229 21.1498L28.8618 33.9724C28.7852 34.0897 28.7323 34.221 28.7062 34.3589C28.68 34.4968 28.6812 34.6385 28.7095 34.7759C28.7379 34.9134 28.7928 35.0438 28.8713 35.1599C28.9498 35.2759 29.0503 35.3753 29.167 35.4523Z" fill="#36C965"/>
<path d="M40.7573 35.3799C40.9738 35.5613 41.2531 35.6488 41.5337 35.6231C41.8143 35.5975 42.0733 35.4607 42.2537 35.243L47.5662 28.8317C47.7253 28.6397 47.8124 28.3977 47.8124 28.1477C47.8124 27.8978 47.7253 27.6558 47.5662 27.4637L42.2537 21.0524C42.1647 20.9437 42.0551 20.8538 41.9314 20.7878C41.8077 20.7218 41.6723 20.6811 41.5328 20.6679C41.3934 20.6548 41.2528 20.6695 41.119 20.7112C40.9853 20.7529 40.861 20.8207 40.7534 20.9109C40.6459 21.001 40.5571 21.1117 40.4921 21.2365C40.4272 21.3613 40.3875 21.4977 40.3752 21.638C40.3629 21.7783 40.3783 21.9196 40.4205 22.0539C40.4627 22.1882 40.5309 22.3128 40.6212 22.4205L45.3668 28.1477L40.6212 33.875C40.4408 34.0927 40.3538 34.3736 40.3793 34.6558C40.4049 34.938 40.5408 35.1985 40.7573 35.3799V35.3799Z" fill="#36C965"/>
<path d="M25.7462 35.243C25.8352 35.3517 25.9448 35.4416 26.0685 35.5076C26.1922 35.5736 26.3276 35.6144 26.4671 35.6275C26.6065 35.6407 26.7471 35.626 26.8809 35.5843C27.0146 35.5426 27.1389 35.4747 27.2465 35.3846C27.354 35.2944 27.4428 35.1838 27.5078 35.059C27.5727 34.9342 27.6124 34.7977 27.6247 34.6574C27.637 34.5172 27.6216 34.3758 27.5794 34.2415C27.5372 34.1072 27.469 33.9827 27.3787 33.875L22.6331 28.1477L27.3787 22.4205C27.469 22.3128 27.5372 22.1882 27.5794 22.0539C27.6216 21.9196 27.637 21.7783 27.6247 21.638C27.6124 21.4977 27.5727 21.3613 27.5078 21.2365C27.4428 21.1117 27.354 21.001 27.2465 20.9109C27.1389 20.8207 27.0146 20.7529 26.8809 20.7112C26.7471 20.6695 26.6065 20.6548 26.4671 20.6679C26.3276 20.6811 26.1922 20.7218 26.0685 20.7878C25.9448 20.8538 25.8352 20.9437 25.7462 21.0524L20.4337 27.4637C20.2746 27.6557 20.1875 27.8978 20.1875 28.1477C20.1875 28.3977 20.2746 28.6397 20.4337 28.8317L25.7462 35.243Z" fill="#36C965"/>
</svg>

